<mxfile host="app.diagrams.net" modified="2023-10-14T03:32:44.228Z" agent="Mozilla/5.0 (Windows NT 10.0; Win64; x64) AppleWebKit/537.36 (KHTML, like Gecko) Chrome/117.0.0.0 Safari/537.36" etag="Q0ZpZmxWhYFijFbjMAdz" version="22.0.4" type="github">
  <diagram id="C5RBs43oDa-KdzZeNtuy" name="Page-1">
    <mxGraphModel dx="2183" dy="798" grid="1" gridSize="10" guides="1" tooltips="1" connect="1" arrows="1" fold="1" page="1" pageScale="1" pageWidth="827" pageHeight="1169" math="0" shadow="0">
      <root>
        <mxCell id="WIyWlLk6GJQsqaUBKTNV-0" />
        <mxCell id="WIyWlLk6GJQsqaUBKTNV-1" parent="WIyWlLk6GJQsqaUBKTNV-0" />
        <mxCell id="H3hWL_QZo341hXOzopkk-31" style="edgeStyle=orthogonalEdgeStyle;rounded=0;orthogonalLoop=1;jettySize=auto;html=1;exitX=0.5;exitY=1;exitDx=0;exitDy=0;entryX=0.5;entryY=0;entryDx=0;entryDy=0;" edge="1" parent="WIyWlLk6GJQsqaUBKTNV-1" source="WIyWlLk6GJQsqaUBKTNV-3" target="H3hWL_QZo341hXOzopkk-25">
          <mxGeometry relative="1" as="geometry" />
        </mxCell>
        <mxCell id="WIyWlLk6GJQsqaUBKTNV-3" value="开始" style="rounded=1;whiteSpace=wrap;html=1;fontSize=12;glass=0;strokeWidth=1;shadow=0;" parent="WIyWlLk6GJQsqaUBKTNV-1" vertex="1">
          <mxGeometry x="218" y="143" width="120" height="40" as="geometry" />
        </mxCell>
        <mxCell id="9lfzOgtiuPNVcqvpQxE5-0" value="&lt;h1&gt;售后流程&lt;/h1&gt;" style="text;html=1;strokeColor=none;fillColor=none;spacing=5;spacingTop=-20;whiteSpace=wrap;overflow=hidden;rounded=0;" parent="WIyWlLk6GJQsqaUBKTNV-1" vertex="1">
          <mxGeometry x="280" y="35" width="110" height="40" as="geometry" />
        </mxCell>
        <mxCell id="H3hWL_QZo341hXOzopkk-34" style="edgeStyle=orthogonalEdgeStyle;rounded=0;orthogonalLoop=1;jettySize=auto;html=1;exitX=0.5;exitY=1;exitDx=0;exitDy=0;entryX=0.5;entryY=0;entryDx=0;entryDy=0;" edge="1" parent="WIyWlLk6GJQsqaUBKTNV-1" source="H3hWL_QZo341hXOzopkk-5" target="H3hWL_QZo341hXOzopkk-24">
          <mxGeometry relative="1" as="geometry" />
        </mxCell>
        <mxCell id="H3hWL_QZo341hXOzopkk-43" value="通过" style="edgeLabel;html=1;align=center;verticalAlign=middle;resizable=0;points=[];" vertex="1" connectable="0" parent="H3hWL_QZo341hXOzopkk-34">
          <mxGeometry x="-0.0769" relative="1" as="geometry">
            <mxPoint as="offset" />
          </mxGeometry>
        </mxCell>
        <mxCell id="H3hWL_QZo341hXOzopkk-5" value="后台审核退款" style="rhombus;whiteSpace=wrap;html=1;" vertex="1" parent="WIyWlLk6GJQsqaUBKTNV-1">
          <mxGeometry x="222" y="373" width="112" height="67" as="geometry" />
        </mxCell>
        <mxCell id="H3hWL_QZo341hXOzopkk-9" value="" style="edgeStyle=orthogonalEdgeStyle;rounded=0;orthogonalLoop=1;jettySize=auto;html=1;exitX=1;exitY=0.5;exitDx=0;exitDy=0;entryX=0;entryY=0.5;entryDx=0;entryDy=0;" edge="1" parent="WIyWlLk6GJQsqaUBKTNV-1">
          <mxGeometry relative="1" as="geometry">
            <mxPoint x="428" y="406.5" as="targetPoint" />
            <mxPoint x="332" y="406.5" as="sourcePoint" />
          </mxGeometry>
        </mxCell>
        <mxCell id="H3hWL_QZo341hXOzopkk-44" value="拒绝" style="edgeLabel;html=1;align=center;verticalAlign=middle;resizable=0;points=[];" vertex="1" connectable="0" parent="H3hWL_QZo341hXOzopkk-9">
          <mxGeometry x="-0.1458" y="1" relative="1" as="geometry">
            <mxPoint y="1" as="offset" />
          </mxGeometry>
        </mxCell>
        <mxCell id="H3hWL_QZo341hXOzopkk-16" style="edgeStyle=orthogonalEdgeStyle;rounded=0;orthogonalLoop=1;jettySize=auto;html=1;exitX=0;exitY=0.5;exitDx=0;exitDy=0;" edge="1" parent="WIyWlLk6GJQsqaUBKTNV-1" source="H3hWL_QZo341hXOzopkk-15">
          <mxGeometry relative="1" as="geometry">
            <mxPoint x="-92" y="276" as="targetPoint" />
            <mxPoint x="74" y="268" as="sourcePoint" />
          </mxGeometry>
        </mxCell>
        <mxCell id="H3hWL_QZo341hXOzopkk-18" value="是" style="edgeLabel;html=1;align=center;verticalAlign=middle;resizable=0;points=[];" vertex="1" connectable="0" parent="H3hWL_QZo341hXOzopkk-16">
          <mxGeometry x="-0.0432" relative="1" as="geometry">
            <mxPoint as="offset" />
          </mxGeometry>
        </mxCell>
        <mxCell id="H3hWL_QZo341hXOzopkk-20" style="edgeStyle=orthogonalEdgeStyle;rounded=0;orthogonalLoop=1;jettySize=auto;html=1;exitX=0.5;exitY=1;exitDx=0;exitDy=0;entryX=0;entryY=0.5;entryDx=0;entryDy=0;" edge="1" parent="WIyWlLk6GJQsqaUBKTNV-1" source="H3hWL_QZo341hXOzopkk-15" target="H3hWL_QZo341hXOzopkk-5">
          <mxGeometry relative="1" as="geometry">
            <mxPoint x="116" y="398" as="targetPoint" />
          </mxGeometry>
        </mxCell>
        <mxCell id="H3hWL_QZo341hXOzopkk-41" value="否" style="edgeLabel;html=1;align=center;verticalAlign=middle;resizable=0;points=[];" vertex="1" connectable="0" parent="H3hWL_QZo341hXOzopkk-20">
          <mxGeometry x="-0.6424" relative="1" as="geometry">
            <mxPoint as="offset" />
          </mxGeometry>
        </mxCell>
        <mxCell id="H3hWL_QZo341hXOzopkk-15" value="订单是否发货" style="rhombus;whiteSpace=wrap;html=1;" vertex="1" parent="WIyWlLk6GJQsqaUBKTNV-1">
          <mxGeometry x="68" y="243" width="95" height="65" as="geometry" />
        </mxCell>
        <mxCell id="H3hWL_QZo341hXOzopkk-23" value="返回拒绝理由给买家" style="rounded=0;whiteSpace=wrap;html=1;" vertex="1" parent="WIyWlLk6GJQsqaUBKTNV-1">
          <mxGeometry x="430" y="381.5" width="140" height="50" as="geometry" />
        </mxCell>
        <mxCell id="H3hWL_QZo341hXOzopkk-24" value="执行退款逻辑订单关闭" style="rounded=0;whiteSpace=wrap;html=1;" vertex="1" parent="WIyWlLk6GJQsqaUBKTNV-1">
          <mxGeometry x="209.5" y="518" width="137" height="42" as="geometry" />
        </mxCell>
        <mxCell id="H3hWL_QZo341hXOzopkk-36" style="edgeStyle=orthogonalEdgeStyle;rounded=0;orthogonalLoop=1;jettySize=auto;html=1;exitX=0;exitY=0.5;exitDx=0;exitDy=0;entryX=1;entryY=0.5;entryDx=0;entryDy=0;" edge="1" parent="WIyWlLk6GJQsqaUBKTNV-1" source="H3hWL_QZo341hXOzopkk-25" target="H3hWL_QZo341hXOzopkk-15">
          <mxGeometry relative="1" as="geometry" />
        </mxCell>
        <mxCell id="H3hWL_QZo341hXOzopkk-37" value="售后" style="edgeLabel;html=1;align=center;verticalAlign=middle;resizable=0;points=[];" vertex="1" connectable="0" parent="H3hWL_QZo341hXOzopkk-36">
          <mxGeometry x="-0.0933" relative="1" as="geometry">
            <mxPoint as="offset" />
          </mxGeometry>
        </mxCell>
        <mxCell id="H3hWL_QZo341hXOzopkk-39" style="edgeStyle=orthogonalEdgeStyle;rounded=0;orthogonalLoop=1;jettySize=auto;html=1;exitX=0.5;exitY=1;exitDx=0;exitDy=0;entryX=0.5;entryY=0;entryDx=0;entryDy=0;" edge="1" parent="WIyWlLk6GJQsqaUBKTNV-1" source="H3hWL_QZo341hXOzopkk-25" target="H3hWL_QZo341hXOzopkk-5">
          <mxGeometry relative="1" as="geometry" />
        </mxCell>
        <mxCell id="H3hWL_QZo341hXOzopkk-40" value="仅退款" style="edgeLabel;html=1;align=center;verticalAlign=middle;resizable=0;points=[];" vertex="1" connectable="0" parent="H3hWL_QZo341hXOzopkk-39">
          <mxGeometry x="-0.1143" y="-1" relative="1" as="geometry">
            <mxPoint as="offset" />
          </mxGeometry>
        </mxCell>
        <mxCell id="H3hWL_QZo341hXOzopkk-25" value="买家的选择" style="rhombus;whiteSpace=wrap;html=1;" vertex="1" parent="WIyWlLk6GJQsqaUBKTNV-1">
          <mxGeometry x="238" y="238" width="80" height="80" as="geometry" />
        </mxCell>
        <mxCell id="H3hWL_QZo341hXOzopkk-45" style="edgeStyle=orthogonalEdgeStyle;rounded=0;orthogonalLoop=1;jettySize=auto;html=1;exitX=0.5;exitY=0;exitDx=0;exitDy=0;entryX=0.5;entryY=0;entryDx=0;entryDy=0;" edge="1" parent="WIyWlLk6GJQsqaUBKTNV-1" source="H3hWL_QZo341hXOzopkk-23" target="H3hWL_QZo341hXOzopkk-25">
          <mxGeometry relative="1" as="geometry">
            <mxPoint x="580" y="260" as="targetPoint" />
          </mxGeometry>
        </mxCell>
      </root>
    </mxGraphModel>
  </diagram>
</mxfile>
